<svg width="45" height="45" viewBox="0 0 45 45" fill="none" xmlns="http://www.w3.org/2000/svg">
<path d="M44.5895 0.410619C44.7842 0.605616 44.9173 0.853515 44.9723 1.12352C45.0273 1.39353 45.0018 1.67375 44.8989 1.92937L28.5329 42.8428C28.3887 43.2031 28.1479 43.5166 27.8369 43.7489C27.526 43.9812 27.157 44.1231 26.7706 44.1592C26.3842 44.1952 25.9953 44.124 25.6467 43.9533C25.2982 43.7825 25.0035 43.519 24.7951 43.1916L15.857 29.1431L1.80857 20.205C1.4804 19.9968 1.21612 19.702 1.04489 19.3532C0.873657 19.0043 0.802135 18.6149 0.838211 18.228C0.874287 17.841 1.01656 17.4715 1.24933 17.1603C1.4821 16.8491 1.79632 16.6083 2.15732 16.4644L43.0707 0.104056C43.3264 0.00115346 43.6066 -0.0243833 43.8766 0.0306185C44.1466 0.0856202 44.3945 0.218736 44.5895 0.413431V0.410619ZM18.6639 28.3219L26.4292 40.5225L39.7407 7.24499L18.6639 28.3219ZM37.7523 5.25656L4.47482 18.5681L16.6783 26.3306L37.7551 5.25656H37.7523Z" fill="#522B59"/>
</svg>
